HIERARCHY
ROOT Hips
{
	OFFSET -14.64140 90.27770 -84.91600
	CHANNELS 6 Xposition Yposition Zposition Zrotation Xrotation Yrotation
	JOINT Spine
	{
		OFFSET 0.00000 13.20850 -1.60436
		CHANNELS 3 Zrotation Xrotation Yrotation
		JOINT Spine1
		{
			OFFSET 0.00000 8.61716 0.00000
			CHANNELS 3 Zrotation Xrotation Yrotation
			JOINT Spine2
			{
				OFFSET 0.00000 8.61717 0.00000
				CHANNELS 3 Zrotation Xrotation Yrotation
				JOINT Spine3
				{
					OFFSET 0.00000 8.61717 0.00000
					CHANNELS 3 Zrotation Xrotation Yrotation
					JOINT Neck
					{
						OFFSET 0.00000 11.07920 1.10792
						CHANNELS 3 Zrotation Xrotation Yrotation
						JOINT Neck1
						{
							OFFSET 0.00000 7.08032 0.00000
							CHANNELS 3 Zrotation Xrotation Yrotation
							JOINT Head
							{
								OFFSET 0.00000 7.08031 0.00000
								CHANNELS 3 Zrotation Xrotation Yrotation
								End site
								{
									OFFSET 0.00000 0.00000 0.00000
								}
							}
						}
					}
					JOINT RightShoulder
					{
						OFFSET -0.01000 7.91373 5.19711
						CHANNELS 3 Zrotation Xrotation Yrotation
						JOINT RightArm
						{
							OFFSET -18.41580 0.00000 0.00000
							CHANNELS 3 Zrotation Xrotation Yrotation
							JOINT RightForeArm
							{
								OFFSET -29.11090 0.00000 0.00000
								CHANNELS 3 Zrotation Xrotation Yrotation
								JOINT RightHand
								{
									OFFSET -24.65040 0.00000 0.00000
									CHANNELS 3 Zrotation Xrotation Yrotation
									JOINT RightHandThumb1
									{
										OFFSET -5.35114 -0.85590 3.97906
										CHANNELS 3 Zrotation Xrotation Yrotation
										JOINT RightHandThumb2
										{
											OFFSET -4.52789 0.00000 0.00000
											CHANNELS 3 Zrotation Xrotation Yrotation
											JOINT RightHandThumb3
											{
												OFFSET -2.46976 0.00000 0.00000
												CHANNELS 3 Zrotation Xrotation Yrotation
												End site
												{
													OFFSET 0.00000 0.00000 0.00000
												}
											}
										}
									}
									JOINT RightHandIndex1
									{
										OFFSET -14.26970 0.00000 2.88139
										CHANNELS 3 Zrotation Xrotation Yrotation
										JOINT RightHandIndex2
										{
											OFFSET -5.48836 0.00000 0.00000
											CHANNELS 3 Zrotation Xrotation Yrotation
											JOINT RightHandIndex3
											{
												OFFSET -3.01859 0.00000 0.00000
												CHANNELS 3 Zrotation Xrotation Yrotation
												End site
												{
													OFFSET 0.00000 0.00000 0.00000
												}
											}
										}
									}
									JOINT RightHandMiddle1
									{
										OFFSET -14.26970 0.00000 -0.09147
										CHANNELS 3 Zrotation Xrotation Yrotation
										JOINT RightHandMiddle2
										{
											OFFSET -6.17441 0.00000 0.00000
											CHANNELS 3 Zrotation Xrotation Yrotation
											JOINT RightHandMiddle3
											{
												OFFSET -3.56743 0.00000 0.00000
												CHANNELS 3 Zrotation Xrotation Yrotation
												End site
												{
													OFFSET 0.00000 0.00000 0.00000
												}
											}
										}
									}
									JOINT RightHandRing1
									{
										OFFSET -12.69180 0.00000 -3.06433
										CHANNELS 3 Zrotation Xrotation Yrotation
										JOINT RightHandRing2
										{
											OFFSET -5.62556 0.00000 0.00000
											CHANNELS 3 Zrotation Xrotation Yrotation
											JOINT RightHandRing3
											{
												OFFSET -3.56744 0.00000 0.00000
												CHANNELS 3 Zrotation Xrotation Yrotation
												End site
												{
													OFFSET 0.00000 0.00000 0.00000
												}
											}
										}
									}
									JOINT RightHandPinky1
									{
										OFFSET -11.11390 0.00000 -6.03719
										CHANNELS 3 Zrotation Xrotation Yrotation
										JOINT RightHandPinky2
										{
											OFFSET -4.52789 0.00000 0.00000
											CHANNELS 3 Zrotation Xrotation Yrotation
											JOINT RightHandPinky3
											{
												OFFSET -2.46976 0.00000 0.00000
												CHANNELS 3 Zrotation Xrotation Yrotation
												End site
												{
													OFFSET 0.00000 0.00000 0.00000
												}
											}
										}
									}
								}
							}
						}
					}
					JOINT LeftShoulder
					{
						OFFSET 0.01000 7.91373 5.19711
						CHANNELS 3 Zrotation Xrotation Yrotation
						JOINT LeftArm
						{
							OFFSET 18.41580 0.00000 0.00000
							CHANNELS 3 Zrotation Xrotation Yrotation
							JOINT LeftForeArm
							{
								OFFSET 29.11090 0.00000 0.00000
								CHANNELS 3 Zrotation Xrotation Yrotation
								JOINT LeftHand
								{
									OFFSET 24.65040 0.00000 0.00000
									CHANNELS 3 Zrotation Xrotation Yrotation
									JOINT LeftHandThumb1
									{
										OFFSET 5.35114 -0.85590 3.97906
										CHANNELS 3 Zrotation Xrotation Yrotation
										JOINT LeftHandThumb2
										{
											OFFSET 4.52789 0.00000 0.00000
											CHANNELS 3 Zrotation Xrotation Yrotation
											JOINT LeftHandThumb3
											{
												OFFSET 2.46977 0.00000 0.00000
												CHANNELS 3 Zrotation Xrotation Yrotation
												End site
												{
													OFFSET 0.00000 0.00000 0.00000
												}
											}
										}
									}
									JOINT LeftHandIndex1
									{
										OFFSET 14.26970 0.00000 2.88139
										CHANNELS 3 Zrotation Xrotation Yrotation
										JOINT LeftHandIndex2
										{
											OFFSET 5.48836 0.00000 0.00000
											CHANNELS 3 Zrotation Xrotation Yrotation
											JOINT LeftHandIndex3
											{
												OFFSET 3.01859 0.00000 0.00000
												CHANNELS 3 Zrotation Xrotation Yrotation
												End site
												{
													OFFSET 0.00000 0.00000 0.00000
												}
											}
										}
									}
									JOINT LeftHandMiddle1
									{
										OFFSET 14.26970 0.00000 -0.09147
										CHANNELS 3 Zrotation Xrotation Yrotation
										JOINT LeftHandMiddle2
										{
											OFFSET 6.17440 0.00000 0.00000
											CHANNELS 3 Zrotation Xrotation Yrotation
											JOINT LeftHandMiddle3
											{
												OFFSET 3.56744 0.00000 0.00000
												CHANNELS 3 Zrotation Xrotation Yrotation
												End site
												{
													OFFSET 0.00000 0.00000 0.00000
												}
											}
										}
									}
									JOINT LeftHandRing1
									{
										OFFSET 12.69180 0.00000 -3.06433
										CHANNELS 3 Zrotation Xrotation Yrotation
										JOINT LeftHandRing2
										{
											OFFSET 5.62556 0.00000 0.00000
											CHANNELS 3 Zrotation Xrotation Yrotation
											JOINT LeftHandRing3
											{
												OFFSET 3.56744 0.00000 0.00000
												CHANNELS 3 Zrotation Xrotation Yrotation
												End site
												{
													OFFSET 0.00000 0.00000 0.00000
												}
											}
										}
									}
									JOINT LeftHandPinky1
									{
										OFFSET 11.11390 0.00000 -6.03719
										CHANNELS 3 Zrotation Xrotation Yrotation
										JOINT LeftHandPinky2
										{
											OFFSET 4.52789 0.00000 0.00000
											CHANNELS 3 Zrotation Xrotation Yrotation
											JOINT LeftHandPinky3
											{
												OFFSET 2.46976 0.00000 0.00000
												CHANNELS 3 Zrotation Xrotation Yrotation
												End site
												{
													OFFSET 0.00000 0.00000 0.00000
												}
											}
										}
									}
								}
							}
						}
					}
					JOINT pCube4
					{
						OFFSET 0.00000 10.91090 1.10792
						CHANNELS 3 Zrotation Xrotation Yrotation
						End site
						{
							OFFSET 0.00000 0.00000 0.00000
						}
					}
				}
			}
		}
	}
	JOINT RightUpLeg
	{
		OFFSET -9.98441 0.00000 0.00000
		CHANNELS 3 Zrotation Xrotation Yrotation
		JOINT RightLeg
		{
			OFFSET 0.00000 -42.11790 0.00000
			CHANNELS 3 Zrotation Xrotation Yrotation
			JOINT RightFoot
			{
				OFFSET 0.00000 -45.00020 -0.00001
				CHANNELS 3 Zrotation Xrotation Yrotation
				JOINT RightForeFoot
				{
					OFFSET 0.00000 -3.74820 0.00000
					CHANNELS 3 Zrotation Xrotation Yrotation
					JOINT RightToeBase
					{
						OFFSET 0.00000 0.06325 14.43120
						CHANNELS 3 Zrotation Xrotation Yrotation
						End site
						{
							OFFSET 0.00000 0.00000 0.00000
						}
					}
				}
			}
		}
	}
	JOINT LeftUpLeg
	{
		OFFSET 9.98441 0.00000 0.00000
		CHANNELS 3 Zrotation Xrotation Yrotation
		JOINT LeftLeg
		{
			OFFSET 0.00000 -42.11800 0.00000
			CHANNELS 3 Zrotation Xrotation Yrotation
			JOINT LeftFoot
			{
				OFFSET 0.00000 -45.00070 0.00000
				CHANNELS 3 Zrotation Xrotation Yrotation
				JOINT LeftForeFoot
				{
					OFFSET 0.00000 -3.74824 0.00000
					CHANNELS 3 Zrotation Xrotation Yrotation
					JOINT LeftToeBase
					{
						OFFSET 0.00000 0.06325 14.43110
						CHANNELS 3 Zrotation Xrotation Yrotation
						End site
						{
							OFFSET 0.00000 0.00000 0.00000
						}
					}
				}
			}
		}
	}
}
MOTION
Frames: 4
Frame Time: 0.050000
-0.03788450200548159 0.04476587457606909 0.04380419846309805 0.02520954824503321 -0.022492120983161265 0.03080846010096677 -3.9743959413709637 -0.24051471648831285 -0.6071258879457064 -0.9560545816944134 3.5321388622197327 0.34877429838024887 -1.3802567110678785 -2.3225080541626912 -0.900481761970302 -0.5131763534544644 -0.015053963707085165 -0.8064636330758114 0.4490758959851028 12.77529612766646 0.2292902857355083 0.1416298269422551 -0.01823170445416341 -1.1867134398391328 0.20627017189891622 -14.909564824315206 -0.04186575861770688 -6.884688284310032 2.503185116994514 -13.795177378435369 68.53333136850438 0.13553646299624106 23.253223138154954 41.96983429293456 10.968966383302261 92.23220739656432 23.440530149575157 -0.34528161453125417 -5.422243160467528 4.5206480942545975 -0.15502402149620653 -1.593423866394484 0.012508627777675387 -0.025304174858531637 -56.26559029024668 -0.001697830011367511 0.010926991690347096 -56.19782312588803 -38.785809409940214 0.03826471639086771 -0.017048110804601564 0.02885183447373991 -0.027408896790168797 -0.0308582836895507 -0.02020537246643381 0.0064844605725010015 -0.01587651926266635 -36.64815302744627 0.021844215486751244 -0.011054094737935494 0.020585324289716867 0.033063619073978714 -0.007407985765822087 -0.02795680925054079 0.023189305873089497 0.029960084192541408 -19.72666845250162 0.04841967474195736 -0.0315258057637446 -0.01581607265570215 -0.028487904769174042 0.010745635897983776 -0.0047057031862615265 0.016873368920477333 -0.010442782067733252 24.03925373598938 -0.028055051733839285 -0.020349817971809202 28.9014741257147 0.006414428044861299 -0.04933094910557877 28.905873498810042 -0.0389487973915931 -0.011189079158238965 5.056533070551079 1.2319330394485608 11.576134849600795 -67.8599314233129 28.385444928352857 -7.210505764371645 -2.695376975564366 -2.5979958439411646 -49.04868557646536 -15.87206636706013 3.273822600753035 0.8295070732478994 -0.4765596616517367 0.018312230382904984 -8.08615072893129 0.027144215477058815 0.0018091478805729415 44.586934064644915 -0.015854500400943782 0.030991145238130447 44.58089716072796 12.507398096265312 -0.04813861407945362 0.0167006769580867 0.010064519265325512 0.004051040755835686 0.035592652403528484 -0.02026188747858594 -0.018338216159690415 -0.03823764053573096 11.095909043108033 -0.026910736935270272 -0.010639468916013056 -0.0015502789395603215 0.010155648088192113 0.01291705000740982 -0.016629089003426193 0.028790638229164008 0.033327321358781095 4.734763301028223 -0.02610025710547022 0.0003875576020183356 0.005188404781123848 -0.0012097099918731893 0.004335608762376963 0.04584238480627972 0.006726510804049468 -0.029635199655309905 -5.565174283944514 0.03356231715310492 -0.033849537790405754 -6.7123696870571745 -0.012692812961330588 0.023941176985546177 -6.745992469202188 -0.03099418761857143 0.0026945345269447914 0.041553045168133775 -0.02498821877523828 0.03622855510638882 8.032451396587831 3.448161927143323 -19.16972488995003 0.022746564875254432 10.428090242633077 0.021340213723751184 -5.598207685434405 -15.644907151473014 3.160792115790787 -0.0437925442706416 0.021065519410322742 -0.043518444595451046 -0.026169022218477937 4.658479291260059 -0.04089560020035687 12.489311066277603 -8.230874816529765 6.851889791797919 0.025687143191422922 46.415961092344304 -0.0033112944313531687 -4.348085472934033 -14.719387392691077 -3.8142856699464778 0.02914602347213077 0.004386954939441309 -0.03021092318521805 0.014747349311371246 -10.718703892458754 0.013105232735074877 
-0.03330220742002743 0.04076623113702351 0.04631636630292548 -0.011843602099406257 0.005019840636809554 -0.000627211635229492 -3.9358129581547177 -0.4007230429888714 -0.610568138450756 -0.9386448087111436 3.518603432269992 0.3534966452020307 -1.3870285648761613 -2.2879829662436397 -0.8291123365180365 -0.49861523051142115 0.011807062446694477 -0.7672790704665663 0.4971906729045254 12.742160004703743 0.1121482912568567 0.17711123820218655 0.033143609947951055 -1.408798801994949 0.17426428235311808 -14.876200762328802 -0.10320609794994356 -6.847921428839175 2.5319693204080265 -13.951951917554752 68.06089155569092 -0.5620646233433837 22.349542250730313 43.07525591112538 11.031074383943343 91.68961841439375 22.989372868714014 -0.39570606801904856 -5.436562255033193 4.504561389802819 -0.17536503467505965 -1.562273536829489 0.008151349264762542 -0.014507502534774933 -56.19228731803904 0.014327375977861665 0.01223153949966583 -56.18540272004946 -38.75952073164733 -0.007872471242379955 0.012342469525736349 -0.010375585233836313 0.048545407292070054 0.03324310549910638 -0.048224945669214786 -0.014155970887642035 0.03811136810804021 -36.644725323590635 -0.004566117888151733 -0.02420990449898184 0.009564236330686194 -0.024763421814148704 0.017473812823820243 -0.022423559009066875 0.022235964969325235 0.03263104336339322 -19.740105974821184 0.03734441427344328 -0.0105423567181169 -0.02344656990651109 -0.0394742532134699 -0.03817031887793586 -0.026105405860003775 0.01744640050305485 -0.014714831991821739 24.045250437354735 0.016862076427003818 -0.004458099414157475 28.833157667988864 0.016859520318849033 -0.02572542260920013 28.874266287359166 0.017018584946767553 0.031132717480331716 4.669261923904821 1.2551530041257046 11.67346951883785 -68.7852064236464 28.39531203869256 -5.662930191629603 -2.94081924248928 -2.7982280243685502 -46.70318847370288 -15.475221147989538 3.950752665805111 0.36465180005208175 -0.5008866832097827 0.083455285987105 -8.121211611980527 0.01195066006655224 -0.00991298713712646 44.54857887857867 0.04388725790723912 0.04927725673569502 44.55517425119663 12.426999578903432 0.022028016104428637 -0.015654347764344264 -0.010346920000973257 -0.025084558231352635 -0.042388940178075034 0.007988328743780073 0.02700431732349544 -0.037059225378671776 11.096886971761222 0.0329490410670315 0.020820099536340328 0.012298844205634797 0.013173346115384694 0.010840608466364948 -0.04407169330506573 0.025989765886291035 -0.00562009952134803 4.8079152134801015 -0.006011316176239241 -0.03393124737699785 0.02142574226427854 0.03900974900266918 -0.03603415401951395 0.04251979259571945 -0.0011827103074882066 0.02294785756389189 -5.568604925801665 -0.008608106804357536 -0.008306863733111928 -6.703861354910984 -0.0020322514452059083 0.02137432232001269 -6.723365076418046 0.04558957255396278 -0.00027261009712405306 -0.03614928325732283 -0.022934386462562153 0.023349670660737117 8.027071885658257 3.475510468311917 -19.200518376345254 0.041849298181174645 10.4187815389456 0.005456833703113156 -5.588349652820291 -15.641706515332507 3.176600290287254 -0.013166675755711588 -0.014455100446377229 0.006752417092120237 0.015451251122267631 4.7365408396609885 0.03433124928727275 12.494180105871205 -8.285735069053686 6.896694519810627 -0.019874531340662107 46.416113475257255 0.051673184746855935 -4.278938138840065 -14.733203845419075 -3.8232872149899846 0.019649542964733473 0.025033455745718216 0.008087219264954143 0.025952671698949787 -10.757773202470515 -0.015165659929994657 
0.04441753464622086 0.0007984703223210167 0.03207308449175864 -0.011706578418719846 -0.03207610767330029 -0.037989063925231326 -3.87832856836225 -0.5082950684459346 -0.6955605559131653 -0.9567061092119786 3.4950601683626603 0.3460950747598427 -1.4027085015013254 -2.3409428822022456 -0.8807137927678045 -0.4148633525630169 0.060696507097549535 -0.7610613395252076 0.5482733835197138 12.710429582520506 0.025452495638236438 0.12037541767450913 0.049193713634174754 -1.5671828816392521 0.27261577642189877 -14.749702047943023 -0.09964996026589402 -6.822553222790995 2.4344600117642314 -14.15097484281166 67.63402289422764 -1.3194691154817932 21.41545707453606 43.44853696720553 11.20439998517982 91.10442801958527 22.645935450510805 -0.365222825049088 -5.515495026003723 4.51742854192153 -0.16809531304059006 -1.6009607080478043 0.003925321234575791 -0.0036859761478735646 -56.215397449993134 -0.039698656531212025 0.04353750264054909 -56.21198844217114 -38.78974043008064 -0.024739372649473162 -0.04445101194555392 -0.0009319862207934214 -0.04636974934828087 0.006836971162335891 0.004824728489164388 0.00732446732258065 -0.02136552187558435 -36.73426438741489 0.007331866121392286 0.008295154068458408 0.04419371795794304 -0.010302369402259197 -0.023969095312039685 -0.011936377894695583 0.018633871026751986 -0.033904813454503246 -19.773413661153356 -0.03405561817515967 0.001995075352998176 -0.02907001035985468 0.025988417532208003 0.03798965741816944 -0.03938753403094463 -0.02437621341440433 0.040543512641906886 24.04462401288006 -0.007812218719095554 -0.0005557418925596189 28.82474862789471 0.03464087042128297 0.02699378589487292 28.835415292703342 0.004959720982466507 -0.0037129945797996227 4.429050180257398 1.1837588302689461 11.716337342685012 -69.13543593187161 28.493515993744197 -4.5810511956240125 -3.1020195586165027 -2.8210213565904825 -44.965252429669015 -15.280573187108972 4.343306184758624 0.04708145704201826 -0.5103817748918617 0.08505335575391293 -8.138922794501465 0.002512222058738434 0.013779793447262458 44.57936847306621 -0.025054848055315822 0.009322577558277262 44.58994923675908 12.43887510320327 -0.04876728008360272 0.00621486017499913 0.023546758962021568 0.0029146532103726565 0.049142078115639726 0.002022003074192727 -0.0389755467445003 0.004020864380004049 11.077073636380044 -0.012714737190456115 -0.033772886644313056 -0.00587536483035462 -0.0054718589815578485 -0.007892472308928982 -0.04735193057272512 0.0014886811245686793 -0.017952830239826835 4.818498147750074 0.03987097766519191 -0.016330460838965322 0.0003122206233431911 -0.018765030053894887 -0.016169131268566894 0.007622037381848639 0.024641954040136957 0.02338463228926517 -5.577660341988031 -0.01593985268097531 0.02590294396402852 -6.672646715099359 0.017970358125048796 -0.039557465356649696 -6.733988063655622 0.01045719637976615 0.007385693426679243 -4.8406543056388056e-05 -0.0035592362906440777 -0.040010826452210144 8.022098957374455 3.5177099008971577 -19.221739086219404 9.224510590463911e-05 10.374807679696831 0.022803050451420913 -5.603566643781419 -15.678736559910002 3.2245381867984295 0.006836270210423828 -0.044880444821496696 -0.002042657669648407 -0.03936396077588058 4.7324292879451475 0.010135763183083067 12.477244162596932 -8.28067488534226 6.887260013120491 0.015072615935018588 46.36756651284673 0.013514343965330525 -4.286565811651984 -14.76722781124461 -3.8162058136044728 0.027973694773494557 -0.03584166772939112 0.046238184614380534 0.014320585040698034 -10.766267464457226 -0.04749180647003307 
-0.020924394376949318 0.0016001916588786272 0.04199852244912469 0.004151301098572397 0.009707914528243435 -0.004951588990570167 -3.836979133414413 -0.6689746711468478 -0.6779050290458289 -0.9959716284733126 3.493603635722357 0.3533310523861862 -1.422915922202284 -2.3624635046360503 -0.8655782565356395 -0.4186387258402542 0.08195173714819175 -0.8508849775521601 0.589005895293546 12.739595456387732 -0.07093556420288225 0.14542525742804643 0.1155237513744647 -1.691642985632441 0.2589560646400966 -14.538505796738875 -0.06812315785246195 -6.71433997226928 2.4193497126050825 -14.249669862093915 66.98563002645366 -1.886726862454158 20.72485081914686 42.82010067842962 11.034653368744376 90.32894645451275 22.251445930425575 -0.399262528903555 -5.4121409657776125 4.522609668594161 -0.16040629366267647 -1.5439461802263668 0.029637680160907016 0.009527943064814496 -56.20784956892219 0.01678630910921823 -0.012541770772570205 -56.18531150733559 -38.73361647929543 -0.030960408970925 -0.002559022778699046 -0.006149072776559226 0.02517100086256249 0.013677308893642041 -0.04573660821428486 0.012269631525117229 0.024704058733011618 -36.67567163416979 0.011784188555674785 -0.024091421537001455 -0.009621576506653653 0.005599868026263125 0.006666985227328609 0.01574030124511554 -0.002852517557159215 -0.03236521422372514 -19.747496431831273 0.04609173662023548 0.01193498437206999 0.01863845735154821 0.0445520065543238 0.028024595573001656 0.043292812785303066 -0.029787303054415227 -0.029687635310848438 24.034765992243983 0.03574787850284377 0.010803848813754888 28.869411088658516 -0.014033196962676672 -0.014709631019014657 28.86267914016275 -0.03538008332026399 -0.039624527813501946 4.30103520200937 1.1571331304492387 11.806881719945704 -69.08860782924927 28.21750045108243 -4.0908608647182305 -3.3042757861313325 -3.0325018630555203 -44.28205750242135 -15.025107260188816 4.383926302341077 -0.13411183942709648 -0.46407048248292093 0.0687360663805244 -8.088868019525359 0.015205103856972109 0.00025588699198824956 44.52163874876027 -0.00554140051253878 0.04100769954241657 44.586537919797976 12.480661136988207 -0.0010648187899160242 0.03198407977753348 -0.02059323480811862 0.036518338392547076 0.01983015215488417 -0.009028171292083125 -0.03492672010728238 -0.038785258121721504 11.112809089253522 0.027148481517902393 0.03695031707622261 0.04544092282767968 -0.026576508112353604 -0.0066138561015801406 0.003663837444019553 -0.015517708929375982 0.018834162242522795 4.755425898063784 -0.04679072922417415 -0.04691441048551296 -0.02510059420271695 0.010313717123742072 0.002120716293103835 0.039528718361384545 -0.004070293187308308 0.004994999452929151 -5.646561229512745 0.010773042250165987 0.033434402323815886 -6.7088809328761405 -0.0021236390702017334 -0.02241896764690009 -6.715640703576635 -0.04082962972774727 0.04650621057847594 0.04031145551090537 -0.03834113366130351 0.01567843009999509 8.086266843342003 3.4658191411747548 -19.225320660745943 0.019777741321347443 10.41211932147238 -0.014774093682341956 -5.634001368074365 -15.651616764227523 3.1788845833073758 0.02132777161877812 -0.0059805051256062 -0.01574526415207693 -0.010174389846681514 4.652053140350977 0.04545620166377055 12.437382988350263 -8.226324819980388 6.918404028432464 0.026706366131452736 46.40143853433686 0.0486118919322235 -4.3404565654587115 -14.76548207325042 -3.8732847658142058 0.003142845072276678 0.01106489056460776 -0.041822714762690706 -0.0029652353041220787 -10.756598739341927 -0.028120996024061703 
